<?xml version="1.0" encoding="UTF-8" standalone="no"?>
<svg
   version="1.0"
   width="512.000000pt"
   height="512.000000pt"
   viewBox="0 0 512.000000 512.000000"
   preserveAspectRatio="xMidYMid meet"
   id="svg38"
   sodipodi:docname="netz.svg"
   inkscape:version="1.1.1 (3bf5ae0d25, 2021-09-20)"
   xmlns:inkscape="http://www.inkscape.org/namespaces/inkscape"
   xmlns:sodipodi="http://sodipodi.sourceforge.net/DTD/sodipodi-0.dtd"
   xmlns="http://www.w3.org/2000/svg"
   xmlns:svg="http://www.w3.org/2000/svg">
  <defs
     id="defs42" />
  <sodipodi:namedview
     id="namedview40"
     pagecolor="#ffffff"
     bordercolor="#666666"
     borderopacity="1.0"
     inkscape:pageshadow="2"
     inkscape:pageopacity="0.0"
     inkscape:pagecheckerboard="true"
     inkscape:document-units="pt"
     showgrid="false"
     inkscape:zoom="1.21875"
     inkscape:cx="341.74359"
     inkscape:cy="341.74359"
     inkscape:window-width="1280"
     inkscape:window-height="961"
     inkscape:window-x="1912"
     inkscape:window-y="-8"
     inkscape:window-maximized="1"
     inkscape:current-layer="svg38" />
  <path
     style="fill:#d9bf98;stroke-width:0.820513;fill-opacity:1"
     d="m 205.23058,624.02535 c -4.20867,-1.50018 -8.58004,-5.84145 -9.19782,-9.13449 -0.61505,-3.27855 1.00293,-8.98437 6.34404,-22.37211 l 4.08279,-10.2337 -2.6646,-7.45022 c -3.2311,-9.03417 -16.65636,-35.85062 -23.03638,-46.01432 -13.71067,-21.84174 -35.45788,-43.16203 -57.79337,-56.6588 -10.8114,-6.53306 -34.898463,-18.50312 -41.913716,-20.82902 -7.65732,-2.53877 -11.041199,-2.21692 -22.533467,2.14319 -7.13669,2.70764 -11.69878,3.93868 -15.520358,4.18805 -5.162415,0.33686 -5.553032,0.22984 -8.45217,-2.31564 -3.794108,-3.33126 -5.417324,-6.40565 -5.417324,-10.26046 0,-7.46968 3.614342,-10.50274 21.465137,-18.013 l 11.208727,-4.71578 3.716194,-8.71798 c 7.74963,-18.18021 14.733056,-40.37273 17.331335,-55.07697 1.900484,-10.75526 2.572046,-37.77547 1.284576,-51.68476 -1.656868,-17.90012 -8.812237,-43.29909 -18.345622,-65.12031 l -4.25009,-9.72814 -9.435898,-3.89094 C 39.340681,222.87753 34.911205,220.52395 32,217.45853 c -2.207499,-2.32443 -2.461538,-3.1327 -2.461538,-7.83185 0,-4.99223 0.152726,-5.39632 3.230944,-8.5487 6.070903,-6.21717 9.446609,-6.17592 26.256321,0.3209 6.352927,2.45535 10.918166,3.72933 13.363852,3.72933 4.768243,0 14.681527,-3.92907 32.225801,-12.7725 33.89894,-17.08721 55.72394,-35.92625 75.03133,-64.76597 6.40496,-9.56717 20.56876,-37.814387 24.18298,-48.228685 l 2.49976,-7.203047 -4.01772,-10.070621 c -7.7639,-19.460614 -8.08565,-22.907421 -2.6009,-27.862561 7.58173,-6.849646 15.65049,-5.712265 21.22259,2.99156 1.1968,1.869449 4.22601,8.138595 6.73157,13.931434 l 4.55558,10.532437 9.95035,4.40675 c 17.62367,7.805062 36.89308,13.773878 56.08549,17.372823 9.67595,1.814426 43.75349,2.058858 55.38462,0.397264 15.34128,-2.19162 45.26159,-11.361119 60.95,-18.678984 7.01157,-3.270547 7.73737,-3.833289 9.13597,-7.083403 9.38438,-21.807841 10.27918,-23.463714 14.28189,-26.429519 1.71993,-1.274385 3.53266,-1.71647 7.03822,-1.71647 3.93908,0 5.23547,0.391908 7.82177,2.364572 4.03953,3.081096 5.69443,7.036715 4.99281,11.933964 -0.29572,2.06401 -2.7414,9.297195 -5.43487,16.073744 l -4.89721,12.320998 4.97638,12.19694 C 476.89889,144.625 515.21951,181.74661 576.2197,204.68173 l 5.96328,2.2421 8.80595,-3.69295 c 18.13926,-7.60705 22.58316,-8.46271 27.33174,-5.26263 4.22232,2.84541 6.50036,6.76515 6.49677,11.17873 -0.007,8.44608 -5.15443,12.24641 -29.94569,22.10814 -2.12069,0.8436 -3.04961,2.36913 -6.70781,11.01589 -8.70888,20.58484 -15.09265,41.87228 -17.15264,57.19746 -1.55048,11.53468 -1.76622,41.23689 -0.38453,52.94179 1.84178,15.60255 8.86801,39.76158 17.39206,59.80096 l 4.32539,10.16864 10.3802,4.24794 c 17.07339,6.98703 22.09609,11.28524 22.09609,18.90889 0,4.79392 -3.24666,9.68595 -7.89079,11.88973 -4.2053,1.99555 -8.34927,1.11201 -23.40819,-4.99085 l -11.46821,-4.64767 -9.18051,3.48946 c -25.84186,9.82235 -50.39037,24.62085 -68.45358,41.26566 -23.10692,21.29248 -39.08434,45.18101 -52.43363,78.39583 l -4.39641,10.93885 4.55766,11.39196 c 5.81945,14.54586 6.88828,19.81565 4.87821,24.05157 -2.38655,5.02929 -6.18307,7.36253 -11.97988,7.36253 -8.09956,0 -10.80546,-3.12473 -18.36959,-21.21285 l -4.35465,-10.41328 -8.49381,-3.90682 c -17.90737,-8.23669 -36.02903,-13.92083 -55.39995,-17.37705 -14.16469,-2.5273 -45.68221,-2.75986 -59.76051,-0.44094 -11.75839,1.93678 -25.76758,5.47133 -36.47442,9.20258 -9.03203,3.14759 -28.66034,11.41297 -29.63546,12.47935 -0.31497,0.34445 -2.75736,5.42628 -5.42753,11.29294 -6.46532,14.20503 -8.58803,17.40506 -12.81993,19.32638 -4.06638,1.84616 -4.89675,1.88194 -9.07875,0.39128 z m 59.29818,-73.18191 c 22.09316,-6.69411 35.12986,-8.45056 62.85586,-8.46867 26.62045,-0.0174 37.70811,1.47773 61.73204,8.32427 8.22954,2.34533 15.23437,3.99266 15.56629,3.66075 0.81495,-0.81495 -1.79196,-7.94011 -11.44558,-31.28287 -12.87746,-31.13811 -12.12197,-30.13599 -26.46814,-35.1089 -17.56276,-6.08789 -32.64202,-8.26345 -48.6513,-7.01917 -10.71732,0.83298 -20.68119,3.25196 -34.63075,8.40751 l -10.25641,3.79061 -3.14848,7.58037 c -13.97159,33.63832 -21.87716,53.10811 -21.87716,53.87892 0,1.11214 0.97966,0.88631 16.32363,-3.76282 z m 174.02855,-16.89472 c 24.52748,-44.91469 52.29363,-72.19159 98.75186,-97.01184 4.25368,-2.27253 6.95488,-4.18052 6.52586,-4.60954 -0.96332,-0.96332 -23.58047,-10.38076 -44.06975,-18.34997 -12.92915,-5.02874 -16.92283,-6.2593 -19.14413,-5.89883 -4.10567,0.66626 -20.77026,8.89619 -28.70731,14.17732 -8.41813,5.60122 -20.04228,16.53506 -25.93329,24.39317 -5.63578,7.51767 -11.20787,17.23365 -15.43798,26.919 -3.96723,9.08349 -4.07714,8.18531 3.2709,26.72985 5.58604,14.09766 18.29608,44.52263 18.59935,44.52263 0.11413,0 2.87914,-4.8923 6.14449,-10.87179 z m -215.01617,7.79487 c 1.76194,-3.83998 17.92535,-43.93273 20.63589,-51.18657 1.41083,-3.77559 2.54995,-7.87389 2.53138,-9.10734 -0.0417,-2.76906 -7.3217,-17.38703 -14.24956,-28.61258 -6.62727,-10.73848 -18.71838,-23.27257 -28.73622,-29.78902 -3.93204,-2.55773 -11.84605,-6.92092 -17.5867,-9.69598 -12.64435,-6.11236 -14.39063,-6.23445 -26.13593,-1.82735 -10.61174,3.98177 -48.18846,19.92525 -49.09291,20.8297 -0.38179,0.38179 5.33328,4.10712 12.70016,8.27853 23.18596,13.12876 37.49537,23.69135 52.30454,38.60899 15.78578,15.90138 26.13642,30.25421 40.63556,56.34777 2.57028,4.62564 4.96242,8.41026 5.31585,8.41026 0.35345,0 1.10852,-1.01538 1.67794,-2.25641 z m 75.12553,-85.96983 c 13.63051,-3.30422 41.22449,-3.28154 57.22202,0.047 10.33558,2.1505 10.15682,2.46363 5.40172,-9.46182 -5.85649,-14.68764 -30.7189,-74.77073 -32.39196,-78.27917 -0.77413,-1.62336 -1.66289,-2.95158 -1.97502,-2.95158 -0.66862,0 -0.94205,0.62913 -13.90773,32 -10.52653,25.46923 -22.36498,54.93077 -23.3266,58.05128 -0.49797,1.61592 -0.28062,1.84251 1.74279,1.81692 1.27144,-0.0161 4.52708,-0.56626 7.23478,-1.22265 z m 96.84014,-13.31222 c 7.50492,-13.6639 25.52366,-32.38088 41.6214,-43.23425 5.30256,-3.57509 9.64102,-6.72392 9.64102,-6.99742 0,-0.77801 -89.69767,-37.76833 -91.58429,-37.76833 -0.62351,0 -1.13366,0.34382 -1.13366,0.76404 0,0.66951 8.9725,22.63876 31.60689,77.3898 3.49804,8.46154 6.46055,15.38462 6.58335,15.38462 0.1228,0 1.59218,-2.49231 3.26529,-5.53846 z m -126.84466,-9.84616 c 22.65624,-54.62999 31.23529,-75.7418 31.23529,-76.86563 0,-0.70852 -0.3946,-1.28821 -0.87689,-1.28821 -1.89804,0 -88.4549,35.6624 -89.74423,36.97563 -1.03967,1.05894 0.44038,2.38123 10.70846,9.56706 14.21535,9.94822 26.70415,23.03168 36.83573,38.58967 2.7077,4.15791 5.12075,7.56563 5.36234,7.57271 0.24159,0.007 3.15728,-6.54097 6.4793,-14.55123 z m -138.26021,-38.54364 29.47886,-12.12302 3.98615,-8.3387 c 2.19237,-4.58628 4.97011,-11.9709 6.17274,-16.41026 2.11039,-7.79023 2.1866,-8.82938 2.1866,-29.81514 0,-20.93011 -0.081,-22.04223 -2.16388,-29.7256 -2.88218,-10.63164 -9.26463,-24.19007 -12.05905,-25.61744 -3.50157,-1.78856 -56.59854,-23.4262 -57.48597,-23.4262 -1.344001,0 -0.99352,2.00575 2.4127,13.8075 7.40649,25.66173 9.41846,39.34227 9.4331,64.14122 0.0144,24.44996 -2.06536,38.82236 -9.44888,65.2962 -3.252562,11.66218 -3.728675,14.2767 -2.60662,14.314 0.33846,0.0112 13.88087,-5.4349 30.09425,-12.10256 z m 423.85447,10.22793 c 0,-0.56851 -1.31995,-5.83005 -2.93323,-11.69231 -7.60846,-27.64734 -9.70355,-41.6759 -9.74068,-65.22274 -0.0293,-18.59059 0.73535,-26.44546 4.18474,-42.987 1.69075,-8.108 7.47098,-29.71261 9.05136,-33.83101 0.98037,-2.55481 -4.81525,-0.67984 -29.83511,9.65211 -14.36143,5.93056 -27.45944,11.32593 -29.10669,11.98972 -2.85529,1.15059 -3.17268,1.6906 -6.80379,11.57615 -5.26217,14.32604 -6.87505,20.99596 -8.01334,33.13849 -0.7606,8.11359 -0.7606,12.80948 0,20.92307 1.15067,12.27458 2.79326,19.04073 8.02472,33.05528 l 3.83966,10.28604 14.82386,6.12422 c 45.48178,18.78998 46.5085,19.16501 46.5085,16.98798 z M 218.35595,357.25263 c 17.56928,-7.06221 56.85104,-23.23683 66.97738,-27.57854 2.14359,-0.91908 3.89744,-1.91996 3.89744,-2.22419 0,-0.30423 -3.78462,-2.16055 -8.41026,-4.12515 -36.95925,-15.6973 -82.23154,-34.50424 -83.05906,-34.50424 -0.86119,0 -0.38214,4.71389 1.33417,13.12821 2.37409,11.63913 2.56993,37.47293 0.37321,49.23077 -2.20377,11.79559 -2.43973,13.94872 -1.5286,13.94872 0.45263,0 9.63971,-3.54401 20.41572,-7.87558 z m 239.07995,7.14538 c 0,-0.4016 -0.7573,-4.37083 -1.6829,-8.82051 -3.75439,-18.04878 -3.69502,-38.36998 0.1682,-57.56981 0.93555,-4.64962 1.51269,-8.64218 1.28252,-8.87235 -0.4861,-0.4861 -14.89377,5.23173 -49.40885,19.60842 -34.90708,14.53997 -40.98003,17.28994 -41.24729,18.67773 -0.13536,0.70288 0.7372,1.6179 2.04401,2.1435 1.25411,0.50438 10.40328,4.31734 20.33149,8.47322 27.42506,11.47995 66.30551,27.09 67.47397,27.09 0.57137,0 1.03885,-0.32859 1.03885,-0.7302 z M 292.93582,281.70394 c -16.71134,-42.09775 -29.83599,-73.29368 -30.83588,-73.29368 -0.37625,0 -3.31347,3.8628 -6.52715,8.584 -10.67402,15.68119 -23.5402,28.64193 -38.4308,38.71328 -7.20713,4.8746 -8.94721,6.57219 -7.83542,7.64415 0.83105,0.80129 39.45858,16.8349 67.20625,27.89615 19.04889,7.59358 22.80095,8.98127 23.25332,8.60018 0.15343,-0.12925 -2.92022,-8.29408 -6.83032,-18.14408 z m 92.46994,6.43824 c 38.89305,-15.68431 61.34951,-25.0768 61.35708,-25.66282 0.003,-0.27225 -2.67053,-2.26996 -5.94233,-4.43934 -16.90094,-11.20628 -29.9981,-23.84293 -41.48375,-40.02513 -3.7494,-5.28255 -7.12724,-9.60463 -7.50633,-9.60463 -0.7958,0 -3.72259,6.87954 -19.65377,46.19694 -13.0092,32.10614 -17.30487,43.06366 -17.30487,44.14181 0,0.40599 0.54029,0.73817 1.20064,0.73817 0.66034,0 13.86034,-5.10526 29.33333,-11.345 z m -51.04773,-14.91141 c 12.5545,-28.4889 31.37861,-75.27294 30.49998,-75.80236 -0.30268,-0.18237 -4.98109,0.40782 -10.39647,1.31153 -17.62046,2.94047 -48.53635,2.19527 -63.36883,-1.52744 -1.37873,-0.34605 -1.86194,-0.11179 -1.86194,0.90265 0,1.4004 5.54768,15.29152 21.47895,53.78229 14.38818,34.76254 15.52278,37.20862 16.67886,35.95755 0.55183,-0.59717 3.68808,-7.17807 6.96945,-14.62422 z m 156.0628,-29.02582 c 8.5994,-3.12109 41.95865,-16.49293 49.47661,-19.83238 5.9043,-2.62267 6.44267,-2.0063 -9.02565,-10.33324 -20.55259,-11.06392 -36.40618,-22.73621 -52.18635,-38.42245 -15.59654,-15.50372 -24.9823,-28.18912 -38.44392,-51.95922 -4.26716,-7.53482 -7.99999,-13.42484 -8.29516,-13.08892 -0.68563,0.78025 -20.51651,48.9886 -22.93587,55.7565 -2.34386,6.5567 -1.9765,8.39387 4.0572,20.28985 9.7885,19.29889 22.28161,34.55534 35.75282,43.66095 10.7399,7.25942 29.09581,16.66332 32.57468,16.6883 0.76735,0.006 4.82889,-1.23622 9.02564,-2.75939 z m -303.80216,-2.87016 c 19.35267,-9.79472 34.49431,-22.34107 43.69613,-36.20658 5.20065,-7.83645 13.89885,-24.03936 15.80437,-29.44019 l 1.25523,-3.5577 -8.50953,-21.44978 c -11.50703,-29.00548 -16.13401,-39.91131 -16.93307,-39.91131 -0.36883,0 -3.89525,5.63077 -7.83647,12.51282 -14.24123,24.86758 -25.08532,39.25933 -41.89386,55.59952 -15.54023,15.10721 -27.88492,24.00288 -50.28511,36.23579 -6.0537,3.30596 -10.93901,6.38008 -10.85627,6.83136 0.16555,0.90285 6.77503,3.86355 29.65786,13.28516 31.69137,13.04837 32.07341,13.09915 45.90072,6.10091 z m 162.50954,-69.44966 c 9.45288,-2.03813 25.44761,-7.59674 28.45092,-9.88746 1.48059,-1.1293 3.64544,-3.68025 4.8108,-5.66878 3.59002,-6.12591 22.53315,-52.50438 22.53315,-55.16793 0,-1.607967 -2.36185,-1.168642 -16.48309,3.06601 -20.57286,6.16935 -36.46736,8.14656 -65.68639,8.17112 -23.76215,0.0199 -35.18768,-1.7978 -61.98023,-9.8609 -5.94901,-1.79033 -11.25361,-3.255139 -11.78801,-3.255139 -1.4643,0 -1.04132,1.150229 12.1053,32.918019 l 12.14011,29.33568 9.02564,3.27364 c 14.034,5.0902 20.72034,6.85029 32.82051,8.63961 5.22661,0.77289 28.08171,-0.27677 34.05129,-1.56387 z"
     id="path81"
     transform="scale(0.75)" />
</svg>
